<?xml version="1.0" encoding="UTF-8"?>
<svg id="Capa_2" data-name="Capa 2" xmlns="http://www.w3.org/2000/svg" viewBox="0 0 498.27 508.99">
  <defs>
    <style>
      .cls-1 {
        fill: #5db27c;
        stroke-width: 0px;
      }
    </style>
  </defs>
  <g id="Capa_1-2" data-name="Capa 1">
    <path class="cls-1" d="M6.83,235.95c8.4,16.21,18.04,30.29,29.65,43.04,1.32,1.44,1.99,3.88,2.14,5.91,3.57,46.83,21.22,87.77,52.82,122.26,14.88,16.24,34.01,25.67,56.66,25.37,20.53-.27,35.87-10.06,46.01-27.75,8.39-14.63,11.56-30.71,11.91-47.43.88-42.79-8.7-83.22-27.97-121.32-10.43-20.62-23.82-39.22-40.37-55.46-1.63-1.6-3.39-3.06-5.45-4.33,17.39,24.43,28.9,51.44,36.55,80.22,7.59,28.54,11.55,57.51,11.25,88.14-9.19-2.94-17.59-5.35-25.8-8.3-25.62-9.22-50.19-20.61-72.52-36.37-32.8-23.16-57.74-52.52-70.75-91.04-5.35-15.85-9.39-32.02-9.91-48.88-.34-10.96-1.58-21.98-.79-32.85,1.52-20.92,5.03-41.57,10.64-61.88C17.01,43.16,25.28,21.95,35.17,1.31c.2-.41.63-.7,1.19-1.31,1.77,11.9,4.47,23.19,11.86,32.74,5.94,7.68,13.01,14.02,21.45,18.94,16.78,9.79,35.44,14.67,53.54,21.03,20,7.03,39.45,15.12,56.82,27.59,18.76,13.46,32.7,31.12,44.39,50.72,11.42,19.13,20.61,39.15,23.77,61.5,2.53,17.88.89,35.51-3.37,52.91-5.37,21.96-12.16,43.63-16.38,65.8-6.97,36.57-3.03,72.52,10.24,107.37.34.9.85,1.73,1.77,3.57,11-36.62,26.82-69.9,48.55-100.26,21.76-30.41,47.66-56.66,78.52-78.03-14.22,1.48-26.77,7.2-38.52,14.8-23.78,15.38-41.76,36.45-57.36,59.67-6.48,9.65-12.1,19.89-18.11,29.86-.57.94-1.17,1.87-2.89,2.58.49-7.34.67-14.72,1.53-22.02,3.06-25.72,8.8-50.76,19.84-74.36,18.29-39.08,47.52-66.47,87.92-81.76,32.31-12.23,65.84-15.82,100.1-13.23,12.62.95,25.18,2.69,38.24,4.12-7.53,4.93-14.66,8.98-21.1,13.92-15.21,11.67-26.07,26.87-34.27,44.09-8.77,18.43-11.79,38.31-15.3,58.14-4.1,23.18-13.65,43.73-31.49,59.8-14.63,13.18-32.1,20.56-51.04,24.71-9.57,2.1-19.36,3.15-28.94,5.18-4.66.99-9.31,2.68-13.56,4.85-16.74,8.55-19.56,25.93-6.82,39.83,12.23,13.34,27.13,14.88,43.49,10.11,23.35-6.8,42.59-19.73,58.43-38.24,18.18-21.25,32.33-44.71,41.19-71.24,5.82-17.42,10.37-35.28,10.01-53.74-.5-25.82,11.62-45.74,27.6-64.64,16.53,59.24,5.94,156.97-67.79,226.44-75.82,71.44-186.12,86.74-277.71,37.81C39.74,431.83-7.25,332.65,6.83,235.95Z"/>
  </g>
</svg>